<svg xmlns="http://www.w3.org/2000/svg" xmlns:xlink="http://www.w3.org/1999/xlink" width="500" zoomAndPan="magnify" viewBox="0 0 375 374.999991" height="500" preserveAspectRatio="xMidYMid meet" version="1.0"><defs><g/><clipPath id="9e8ec59817"><path d="M 247.882812 306.769531 L 261.382812 306.769531 L 261.382812 320.269531 L 247.882812 320.269531 Z M 247.882812 306.769531 " clip-rule="nonzero"/></clipPath></defs><g fill="#ffffff" fill-opacity="1"><g transform="translate(159.373544, 305.030488)"><g><path d="M 43.5625 -148.484375 L 43.5625 -4.9375 L 89.3125 -4.9375 C 98.257812 -4.9375 107.207031 -6.898438 116.15625 -10.828125 C 125.101562 -14.753906 133.179688 -20.046875 140.390625 -26.703125 C 147.609375 -33.367188 152.863281 -40.90625 156.15625 -49.3125 L 158.625 -49.3125 L 142.734375 0 L 0 0 L 0 -2.46875 C 5.84375 -2.28125 10.222656 -4.648438 13.140625 -9.578125 C 16.066406 -14.515625 17.53125 -24.195312 17.53125 -38.625 L 17.53125 -148.484375 C 17.53125 -163.097656 16.066406 -172.914062 13.140625 -177.9375 C 10.222656 -182.957031 5.84375 -185.285156 0 -184.921875 L 0 -187.390625 L 61.09375 -187.390625 L 61.09375 -184.921875 C 55.25 -185.285156 50.863281 -182.957031 47.9375 -177.9375 C 45.019531 -172.914062 43.5625 -163.097656 43.5625 -148.484375 Z M 43.5625 -148.484375 "/></g></g></g><g fill="#ffffff" fill-opacity="1"><g transform="translate(47.066372, 249.350146)"><g><path d="M 0 0 L 0 -2.625 C 6.226562 -2.4375 10.898438 -4.96875 14.015625 -10.21875 C 17.128906 -15.476562 18.6875 -25.800781 18.6875 -41.1875 L 18.6875 -158.3125 C 18.6875 -173.894531 17.128906 -184.363281 14.015625 -189.71875 C 10.898438 -195.070312 6.226562 -197.550781 0 -197.15625 L 0 -199.796875 L 150.421875 -199.796875 L 162.703125 -155.6875 L 160.0625 -155.6875 C 157.144531 -163.28125 152.375 -170 145.75 -175.84375 C 139.132812 -181.6875 131.785156 -186.257812 123.703125 -189.5625 C 115.617188 -192.875 107.585938 -194.53125 99.609375 -194.53125 L 46.4375 -194.53125 L 46.4375 -93.171875 C 51.5 -104.273438 58.21875 -111.140625 66.59375 -113.765625 C 74.96875 -116.398438 85 -115.769531 96.6875 -111.875 C 101.550781 -110.3125 106.460938 -108.703125 111.421875 -107.046875 C 116.390625 -105.390625 121.160156 -105 125.734375 -105.875 C 130.316406 -106.757812 134.457031 -110.023438 138.15625 -115.671875 L 140.5 -114.5 C 135.625 -100.09375 128.753906 -90.988281 119.890625 -87.1875 C 111.035156 -83.394531 100.1875 -83.640625 87.34375 -87.921875 C 82.664062 -89.472656 77.84375 -91.03125 72.875 -92.59375 C 67.90625 -94.15625 63.179688 -94.59375 58.703125 -93.90625 C 54.234375 -93.226562 50.144531 -90.257812 46.4375 -85 L 46.4375 -5.25 L 97.84375 -5.25 C 107.382812 -5.25 116.925781 -7.34375 126.46875 -11.53125 C 136.019531 -15.71875 144.640625 -21.363281 152.328125 -28.46875 C 160.015625 -35.582031 165.613281 -43.617188 169.125 -52.578125 L 171.453125 -52.578125 L 154.8125 0 Z M 0 0 "/></g></g></g><g clip-path="url(#9e8ec59817)"><path fill="#ffffff" d="M 261.4375 313.550781 C 256.355469 314.484375 255.597656 315.246094 254.660156 320.328125 C 253.722656 315.246094 252.964844 314.484375 247.882812 313.550781 C 252.964844 312.613281 253.722656 311.855469 254.660156 306.769531 C 255.597656 311.855469 256.355469 312.613281 261.4375 313.550781 Z M 261.4375 313.550781 " fill-opacity="1" fill-rule="nonzero"/></g></svg>